<svg width="129" height="72" viewBox="0 0 129 72" fill="none" xmlns="http://www.w3.org/2000/svg">
<path d="M30.3043 53.9425C33.2466 54.4282 35.6968 57.446 35.4751 61.0293C35.2155 65.2105 32.1405 69.4268 24.5006 69.4268C22.2475 69.4496 19.9941 69.4268 17.741 69.4268L16.9026 40.7524H27.3889C29.689 40.7524 33.5252 42.2404 33.8349 46.6718C34.1621 51.3616 31.1818 53.3717 29.8959 53.8546L29.8986 53.9006C29.9392 53.9019 30.1801 53.922 30.3043 53.9425ZM25.1964 52.5905C25.7953 52.5998 26.49 52.5451 27.1442 52.2354C29.1373 51.1641 28.8804 48.4327 27.9906 47.2762C27.4416 46.5349 26.7088 46.1172 25.7811 46.1172H24.2883C24.3776 48.2409 24.4235 52.0366 24.4479 52.579C24.6101 52.5905 24.9293 52.5864 25.1964 52.5905ZM25.343 66.0072C30.2421 65.3592 29.3766 60.8345 28.4707 59.3533C27.7743 58.2157 25.984 57.4352 25.0712 57.5745C24.9327 57.5957 24.5425 57.5566 24.5425 57.5566C24.5425 57.5566 24.7474 64.3061 24.813 66.0109L25.3417 66.0085L25.343 66.0072Z" fill="black"/>
<path d="M11.4888 19.1924C11.2156 17.035 11.3978 18.4043 11.0615 16.2707C10.8023 14.6547 10.4442 11.4694 9.22517 10.3787C8.7838 9.98064 8.17429 10.1399 7.92208 10.8564C7.55077 11.9152 7.57957 14.1133 7.58658 15.2199C7.6146 19.4472 7.92286 23.5949 8.56039 27.663C8.8196 29.3109 9.22594 32.303 9.85647 33.7679C10.4797 35.241 11.9249 35.5433 12.2385 33.5927C12.5117 31.9846 12.3085 29.0641 12.2385 27.5038C12.1824 26.1902 12.1964 25.7364 12.1194 24.391H19.3984C19.7207 24.4308 19.7557 24.805 19.7347 25.0995C19.6647 26.2141 19.6366 27.3286 19.5245 28.4432C19.2863 30.8235 18.7959 33.172 17.703 35.4011C16.7923 37.264 15.5522 38.7607 13.7797 39.5249C11.3207 40.5837 9.08583 40.2573 7.03311 39.0711C5.13453 37.9725 3.81743 36.1972 2.79458 34.1194C1.3864 31.2693 0.629772 28.0849 0.251456 24.7254C-0.0568011 21.9947 -0.0778186 19.2163 0.167386 16.3822C0.356544 14.2248 0.734859 12.0912 1.64562 10.0293C2.56338 7.97534 3.83845 6.2876 5.73003 5.33228C7.57957 4.40084 9.36606 4.44064 11.1035 4.98199C13.4365 5.70645 15.0968 7.38623 16.3929 9.55959C17.654 11.6693 18.4526 14.0735 18.9781 16.621C19.1672 17.5286 19.3003 18.4521 19.4685 19.3994C17.4858 19.3994 13.3944 19.1924 11.4888 19.1924Z" fill="black"/>
<path d="M119.086 57.914C127.039 57.606 126.919 66.894 125.822 71.9997H117.679C117.679 71.9997 118.067 65.9375 118.067 64.811C118.229 62.7686 118.06 60.2481 114.711 60.2481C114.491 60.2238 114.052 60.2643 114.052 60.2643L113.304 71.9997H105.742L108.118 37.3465C108.118 37.3465 113.914 37.306 116.83 37.3708C127.445 37.3465 130.027 51.9578 119.225 57.606C119.174 57.6304 119.093 57.914 119.093 57.914H119.086ZM114.968 55.0936C118.536 54.6398 119.57 49.1611 118.514 45.741C118.038 44.2011 116.624 43.1719 115.092 43.4717C114.851 47.289 114.609 51.2602 114.367 55.0936H114.968Z" fill="black"/>
<path d="M57.4143 57.3437C59.145 60.8167 61.3033 64.756 65.2874 66.1682C66.7602 66.5331 67.7171 65.2019 66.7534 63.6614C64.3779 59.8437 60.2649 57.418 57.8962 53.5193C54.4958 48.4651 56.0705 40.6812 63.0272 39.9852C67.5814 39.5325 71.3798 41.7229 73.8978 45.3514C72.6015 47.4528 70.3889 51.0204 70.4228 51.0812C68.7872 48.0879 67.3642 45.1745 64.4322 44.1677C62.5793 43.5393 62.0295 45.215 62.5386 46.4583C64.534 51.2895 73.3776 55.3639 73.5269 61.5532C73.7712 71.9859 61.025 72.4521 55.4053 65.9857C54.9031 65.3574 54.3058 64.6006 53.9529 63.8303C55.2832 61.2762 57.4075 57.3504 57.4075 57.3504L57.4143 57.3437Z" fill="black"/>
<path d="M89.9214 40.6172L89.4481 46.3653H84.4227L82.7547 69.4236H75.7068L77.3786 46.3653H72.2076L72.865 40.618H89.9208L89.9214 40.6172Z" fill="black"/>
<path d="M32.2956 9.01514C30.5053 17.2807 26.8445 33.7146 26.8445 33.7146L34.2892 31.5231L34.1409 37.5905C34.1409 37.5905 24.3212 37.5905 18.9309 37.5905C19.3019 35.3924 22.6407 16.2104 23.7536 9.04807C25.0149 9.04807 32.0998 9.01514 32.2956 9.01514Z" fill="black"/>
<path d="M73.7361 9.07057C73.6788 16.2111 73.6221 23.3097 73.5648 30.4083C73.5822 30.4124 73.599 30.4157 73.6165 30.4198C74.8124 23.3056 76.0084 16.1922 77.2031 9.08784C79.4392 9.08784 81.6461 9.08784 83.8916 9.08784C83.7577 9.76381 83.6306 10.4135 83.5004 11.0615C81.7389 19.813 79.9768 28.5646 78.2202 37.3186C78.1729 37.5546 78.0857 37.6402 77.8291 37.6393C74.9314 37.6278 72.0356 37.6319 69.1398 37.6319C69.0377 37.6319 68.9355 37.6319 68.7854 37.6319C68.7356 32.1731 68.6857 26.7439 68.6359 21.3155C68.6129 21.3097 68.5892 21.304 68.5661 21.2982C68.4328 21.8788 68.2983 22.4586 68.1675 23.04C67.0949 27.7998 66.0217 32.5596 64.9565 37.3227C64.9042 37.5563 64.8133 37.6402 64.5591 37.6393C61.6409 37.6278 58.7246 37.6319 55.8076 37.6319C55.7054 37.6319 55.6027 37.6319 55.475 37.6319C55.6382 28.0983 55.8007 18.5943 55.9639 9.08537C58.1995 9.08537 60.4076 9.08537 62.6568 9.08537C62.2407 16.3369 61.8253 23.5663 61.4104 30.7965C61.4254 30.8014 61.4397 30.8064 61.4547 30.8113C61.4839 30.706 61.5182 30.6024 61.5412 30.4955C63.0592 23.4684 64.5778 16.4422 66.0871 9.41267C66.1431 9.15198 66.2409 9.06234 66.5181 9.06399C68.7935 9.07797 71.0658 9.07139 73.3393 9.07139H73.7373L73.7361 9.07057Z" fill="black"/>
<path d="M54.0554 40.6097H47.2387C47.3428 46.567 47.8246 61.387 47.2777 63.8725C47.2256 64.2723 46.4639 66.5513 45.0315 66.5513C43.3647 66.5513 42.8439 64.2723 42.7853 63.8725C42.2384 61.387 42.6876 46.4204 42.8244 40.603H36.0076C36.0597 46.3471 35.9685 56.6491 35.9685 56.6491C35.988 59.0947 36.1638 62.4465 37.2707 65.0253C38.5207 67.944 40.9232 69.9564 44.719 69.9564C44.8232 69.9564 45.2333 69.9564 45.3375 69.9564C49.1398 69.9564 51.5683 67.944 52.8184 65.0253C53.9252 62.4398 54.0685 59.0947 54.088 56.6491C54.088 56.6491 53.9969 46.3471 54.0489 40.603L54.0554 40.6097Z" fill="black"/>
<path d="M105.325 53.5613C105.44 53.5613 105.554 53.5681 105.661 53.5681C105.688 52.7139 105.446 50.8979 105.292 50.1244C104.862 47.9586 104.176 45.9206 103.026 44.1315C101.85 42.2953 100.311 40.8694 98.0923 40.2506C96.4454 39.7933 94.7246 39.7596 92.923 40.5466C91.0744 41.3537 89.7972 42.7863 88.8629 44.5284C87.915 46.2838 87.4915 48.0931 87.2428 49.9226C86.9202 52.3238 86.8597 54.6846 87.0681 57.005C87.3302 59.8568 87.9554 62.554 89.2259 64.9686C90.1468 66.7308 91.3568 68.2307 93.1449 69.1656C95.0808 70.1745 97.2117 70.4435 99.6048 69.549C104.983 67.3899 105.574 60.5765 105.742 56.7091H98.9124C99.0805 58.5789 99.1477 61.9217 99.0536 63.6839C98.8654 67.2083 96.4723 68.345 95.39 63.5629C94.9397 61.5787 94.6641 57.5297 94.5095 55.4043C94.4691 54.8527 94.4422 54.2205 94.4221 53.5546H105.319L105.325 53.5613ZM97.2185 47.0035C97.4672 47.9653 97.6016 48.9406 97.7294 49.7948C97.81 50.3329 97.8638 50.7297 97.9041 51.0593H94.3952C94.3952 49.1827 94.449 47.508 94.5027 47.0573C94.8187 44.4746 96.5664 44.4611 97.2185 47.0035Z" fill="black"/>
<path d="M39.4085 9.07313C40.5166 9.05998 39.8834 9.05998 51.3408 9.0797C52.5149 18.5993 53.3197 28.0927 54.4938 37.5992H47.271L46.9544 33.3456H42.5482L41.9282 37.6057H34.4812L39.1315 9.07313M46.5982 27.9941C46.275 23.4183 45.622 14.3194 45.622 14.3194C45.622 14.3194 45.5627 14.3063 45.5363 14.3063C44.8371 18.8623 43.7817 24.5688 43.0759 29.1446C44.2764 28.8093 45.7078 28.3491 46.5982 27.9941Z" fill="black"/>
<path d="M127.076 29.8251C126.537 31.234 125.749 32.0124 124.762 32.4775C123.292 33.2638 120.683 33.9229 117.382 34.3579C117.225 34.3539 117.092 34.2356 117.072 34.0759C117.051 33.9044 117.169 33.7466 117.339 33.7169C121.16 33.0488 123.63 31.9475 123.63 31.4278C123.63 30.1305 116.556 29.2303 107.829 29.2303C99.102 29.2303 92.0273 30.1305 92.0273 31.4278C92.0273 32.0507 93.6539 32.7137 96.6353 33.3784C96.8338 33.4226 96.9491 33.6326 96.8777 33.8235C96.8364 33.9341 96.7416 34.0116 96.6312 34.0337C94.6983 33.6885 93.1012 33.2575 91.9627 32.7674C90.6159 32.3557 89.5591 31.5789 88.8882 29.8252C88.2686 28.2054 87.8183 26.5344 87.4526 24.8457C86.0414 18.3295 86.9245 12.4144 90.4472 6.08773C90.8963 5.28109 91.6806 4.33219 92.3641 3.57382C92.7816 3.11052 93.5138 3.47154 93.4436 4.09393C93.3533 4.89473 93.2369 5.70289 93.12 6.51508C92.7316 9.21326 92.3368 11.9559 92.8673 14.6211C94.0482 9.35393 95.9305 6.12565 98.9546 0.939051L99.3123 0.325233C99.5968 -0.163011 100.32 -0.087055 100.496 0.450591C100.72 1.1309 100.942 1.81596 101.165 2.5039C103.394 9.37606 105.717 16.5362 110.311 22.122C111.971 17.7688 114.119 10.6149 115.201 4.9305C115.34 4.39866 116.025 4.26219 116.346 4.70623C119.305 8.79402 120.782 11.7488 122.264 16.3337C123.823 11.1242 123.65 7.70451 122.904 2.32162C122.821 1.71908 123.493 1.35705 123.897 1.80855C128.175 6.59007 130.049 15.8196 128.413 24.8457C128.101 26.572 127.718 28.1484 127.076 29.8251Z" fill="black"/>
</svg>
