<svg width="440" height="269" viewBox="0 0 440 269" fill="none" xmlns="http://www.w3.org/2000/svg">
<g clip-path="url(#clip0_0_100)">
<mask id="mask0_0_100" style="mask-type:luminance" maskUnits="userSpaceOnUse" x="0" y="0" width="440" height="269">
<path d="M428 0H12C5.37258 0 0 5.37258 0 12V257C0 263.627 5.37258 269 12 269H428C434.627 269 440 263.627 440 257V12C440 5.37258 434.627 0 428 0Z" fill="white"/>
</mask>
<g mask="url(#mask0_0_100)">
<path d="M0 12C0 5.37 5.37 0 12 0H428C434.63 0 440 5.37 440 12V257C440 263.63 434.63 269 428 269H12C5.37 269 0 263.63 0 257V12Z" fill="#20242D"/>
<mask id="mask1_0_100" style="mask-type:alpha" maskUnits="userSpaceOnUse" x="12" y="12" width="416" height="245">
<path d="M420 12H20C15.5817 12 12 15.5817 12 20V249C12 253.418 15.5817 257 20 257H420C424.418 257 428 253.418 428 249V20C428 15.5817 424.418 12 420 12Z" fill="#0F212E"/>
</mask>
<g mask="url(#mask1_0_100)">
<path d="M-872.158 370.923C-737.714 463.437 -579.873 540.435 -398.625 601.919C-310.862 631.691 -244.057 651.162 -198.216 660.316C-152.375 669.47 -119.543 669.947 -99.7074 661.751C-79.8718 653.555 -66.0325 637.987 -58.1938 615.061C-47.089 582.582 -52.6273 558.323 -74.8168 542.267C-95.0984 526.859 -138.253 500.486 -204.272 463.165L-415.653 343.493C-550.854 265.647 -640.435 185.147 -684.4 102.005C-725.804 17.5995 -725.276 -86.6954 -682.816 -210.88C-625.332 -379.007 -536.534 -476.811 -416.421 -504.293C-294.406 -531.13 -123.692 -507.333 95.7136 -432.904C227.357 -388.247 340.177 -341.447 434.161 -292.508C530.706 -244.832 608.773 -199.16 668.364 -155.492L544.078 189.334L532.549 195.01C394.994 92.9129 234.645 10.8001 51.4892 -51.3317C-38.1811 -81.7504 -103.429 -96.4152 -144.252 -95.3384C-182.513 -95.5249 -207.847 -77.4744 -220.258 -41.1743C-226.79 -22.069 -227.253 -5.16881 -221.633 9.53041C-214.105 24.8768 -193.222 44.7538 -158.984 69.1611C-124.092 91.6579 -68.2359 124.471 8.57707 167.586L203.766 278.574C311.654 342.89 383.467 413.085 419.198 489.17C454.93 565.255 451.57 665.397 409.111 789.582C371.877 898.482 322.118 978.607 259.843 1029.97C198.222 1079.43 115.145 1101.36 10.6061 1095.75C-92.0251 1090.78 -226.333 1060.15 -392.319 1003.84C-518.238 961.122 -632.659 915.911 -735.581 868.205C-835.943 819.234 -925.157 771.913 -1003.22 726.241L-882.703 373.742L-872.158 370.923Z" fill="#0038FF"/>
<path d="M1755.04 1652.32C1695.09 1653.31 1614.81 1645.26 1514.19 1628.18C1416.13 1609.85 1302.22 1578.67 1172.49 1534.66C1008.41 1479 875.371 1410.42 773.362 1328.91C673.913 1246.14 612.25 1143.12 588.38 1019.89C565.163 894.75 585.242 739.52 648.605 554.198C734.83 302.008 854.447 138.975 1007.46 65.086C1162.38 -8.1557 1360.99 -3.68502 1603.29 78.5102C1776.91 137.406 1904.83 208.516 1987.05 291.845C2071.19 375.82 2118.57 470.783 2129.19 576.727C2142.37 681.407 2127.72 795.838 2085.26 920.022C2072.85 956.322 2057.55 994.847 2039.36 1035.58C2023.08 1076.97 2004.28 1116.42 1982.93 1153.96L1967.56 1161.54L1026.02 842.137C1010.63 930.73 1030.8 999.405 1086.53 1048.16C1144.16 1097.56 1247.37 1147.5 1396.19 1197.98C1495.4 1231.63 1578.09 1257.55 1644.26 1275.74C1713 1292.66 1783.35 1307.99 1855.3 1321.74L1863.8 1334.23L1755.04 1652.32ZM1704.13 736.369C1719.81 690.517 1725.57 648.756 1721.41 611.099C1719.81 572.179 1700.96 537.007 1664.86 505.573C1629.42 472.229 1570.69 441.644 1488.65 413.814C1368.45 373.04 1282.09 367.195 1229.56 396.283C1179.59 424.107 1143.18 471.455 1120.32 538.324L1704.13 736.369Z" fill="#0038FF"/>
<path d="M2512.23 1960.35L2054.34 1805.02L2713.77 -123.65L3171.66 31.6796L2512.23 1960.35Z" fill="#0038FF"/>
<path d="M4099.83 2447.74C4039.87 2448.72 3959.59 2440.68 3858.97 2423.6C3760.91 2405.26 3647.02 2374.1 3517.28 2330.09C3353.2 2274.43 3220.15 2205.84 3118.14 2124.33C3018.69 2041.55 2957.04 1938.55 2933.17 1815.31C2909.96 1690.17 2930.02 1534.94 2993.39 1349.62C3079.61 1097.43 3199.23 934.392 3352.24 860.503C3507.16 787.261 3705.78 791.732 3948.08 873.927C4121.69 932.823 4249.62 1003.94 4331.85 1087.27C4415.98 1171.24 4463.35 1266.2 4473.97 1372.14C4487.15 1476.82 4472.51 1591.26 4430.05 1715.44C4417.64 1751.74 4402.34 1790.27 4384.15 1831.01C4367.88 1872.39 4349.06 1911.84 4327.71 1949.37L4312.34 1956.95L3370.81 1637.56C3355.42 1726.15 3375.59 1794.82 3431.31 1843.57C3488.94 1892.97 3592.17 1942.92 3740.98 1993.4C3840.19 2027.05 3922.88 2052.97 3989.06 2071.16C4057.79 2088.08 4128.13 2103.41 4200.08 2117.16L4208.59 2129.64L4099.83 2447.74ZM4048.91 1531.79C4064.59 1485.93 4070.35 1444.17 4066.19 1406.52C4064.59 1367.6 4045.75 1332.43 4009.66 1300.99C3974.22 1267.65 3915.47 1237.06 3833.43 1209.23C3713.24 1168.46 3626.88 1162.62 3574.35 1191.7C3524.38 1219.53 3487.96 1266.87 3465.1 1333.74L4048.91 1531.79Z" fill="#0038FF"/>
<path d="M5621.91 2564.31L5494.53 2936.86C5440.3 2939.79 5364.81 2930.16 5268.06 2908C5171.31 2885.84 5070.46 2856.97 4965.53 2821.37C4814.81 2770.24 4696.07 2706.51 4609.33 2630.18C4524.49 2554.49 4474.9 2456.65 4460.57 2336.66C4448.15 2217.31 4472.34 2065.6 4533.14 1881.55C4597.81 1692.4 4673.87 1554.03 4761.31 1466.43C4850.66 1379.47 4953.07 1332.12 5068.56 1324.39C5184.05 1316.66 5312.39 1336.74 5453.58 1384.64C5537.52 1413.11 5624.27 1448.94 5713.84 1492.11C5803.41 1535.29 5874.49 1576.46 5927.11 1615.63L5798.68 2000.62L5788.13 2003.44C5734.81 1972.56 5676.69 1943.26 5613.79 1915.52C5550.88 1887.78 5487.95 1863.23 5424.99 1841.87C5297.16 1798.51 5200.27 1792.3 5134.34 1823.24C5068.4 1854.17 5016.17 1926 4977.63 2038.72C4948.23 2124.7 4936.85 2192.26 4943.46 2241.41C4950.08 2290.56 4975.9 2330.24 5020.93 2360.44C5065.96 2390.64 5131.41 2420.3 5217.27 2449.42C5284.04 2472.07 5348.93 2490.89 5411.94 2505.87C5474.95 2520.85 5542.11 2536.16 5613.4 2551.82L5621.91 2564.31Z" fill="#0038FF"/>
<path d="M5912.28 2646.81L6118.04 2045L5946.34 1986.75L6073.71 1614.19L6288.36 1687.01L6490.81 1375.11L6819.91 1486.75L6703.31 1827.77L7015.26 1933.59L6887.88 2306.15L6575.93 2200.33L6404.46 2701.85C6386.17 2755.34 6380.12 2794.86 6386.29 2820.4C6393.11 2844.04 6420.37 2863.95 6468.07 2880.13C6498.59 2890.48 6531.35 2900.54 6566.35 2910.28C6602 2918.1 6637.64 2925.93 6673.29 2933.76L6679.91 2942.4L6552.53 3314.96C6451.81 3310.64 6326.09 3282.92 6175.37 3231.79C6024.65 3180.66 5929.57 3110.02 5890.12 3019.89C5850.68 2929.75 5858.06 2805.39 5912.28 2646.81Z" fill="#0038FF"/>
<path d="M6940.4 2694.95C7027.93 2438.94 7145.35 2273.03 7292.64 2197.2C7439.92 2121.37 7643.3 2127.45 7902.77 2215.47C8076.39 2274.37 8207.17 2346.45 8295.12 2431.72C8383.07 2516.99 8431.66 2620.89 8440.86 2743.41C8452.63 2864.67 8429.44 3010.32 8371.31 3180.36C8313.82 3348.48 8243.27 3477 8159.65 3565.9C8077.93 3655.45 7976.11 3707.25 7854.19 3721.33C7732.93 3733.5 7585.49 3710.14 7411.87 3651.24C7152.4 3563.22 6987.24 3445.36 6916.38 3297.66C6846.17 3148.05 6854.17 2947.14 6940.4 2694.95ZM7546.11 3258.62C7656.77 3296.16 7739.34 3297.53 7793.83 3262.71C7850.88 3226.63 7900.31 3147.45 7942.12 3025.18C7981.96 2908.63 7990.34 2818.72 7967.26 2755.46C7946.74 2690.93 7881.15 2639.9 7770.49 2602.36C7663.65 2566.12 7580.43 2566.66 7520.82 2604.01C7463.77 2640.09 7415.32 2716.41 7375.48 2832.95C7333.67 2955.23 7324.3 3048 7347.38 3111.26C7373.03 3173.26 7439.27 3222.38 7546.11 3258.62Z" fill="#0038FF"/>
<path d="M8836.73 4105.81L8378.84 3950.48L8856.02 2554.84L9228.05 2681.05L9167.28 2980.25L9175.86 2983.16C9229.61 2881.99 9296.77 2819.49 9377.31 2795.64C9458.51 2769.88 9563.02 2778.68 9690.85 2822.04C9742.36 2839.51 9788.13 2858.25 9828.14 2878.22C9868.81 2896.27 9902.79 2912.07 9930.1 2925.6L9777.25 3372.66L9769.56 3376.45C9741.65 3358.45 9708.65 3339.79 9670.54 3320.47C9634.35 3301.79 9591.44 3284.04 9541.84 3267.22C9471.25 3243.27 9403.41 3233.05 9338.33 3236.56C9275.16 3240.72 9215.93 3270.72 9160.64 3326.59C9107.9 3381.19 9059.32 3473.45 9014.9 3603.37L8836.73 4105.81Z" fill="#0038FF"/>
</g>
<path d="M420 257H20C15.59 257 12 253.41 12 249V20C12 15.59 15.59 12 20 12H420C424.41 12 428 15.59 428 20V249C428 253.41 424.41 257 420 257ZM20 14C16.69 14 14 16.69 14 20V249C14 252.31 16.69 255 20 255H420C423.31 255 426 252.31 426 249V20C426 16.69 423.31 14 420 14H20Z" fill="#0038FF"/>
<path d="M313.61 40.14V32.14H317.12C318.8 32.14 319.73 33.29 319.73 34.65C319.73 36.01 318.78 37.16 317.12 37.16H315.01V40.15H313.61V40.14ZM318.3 34.64C318.3 33.87 317.72 33.37 316.93 33.37H315.01V35.91H316.93C317.72 35.91 318.3 35.41 318.3 34.64Z" fill="white"/>
<path d="M326.51 40.14L325.92 38.6H322.25L321.66 40.14H320.07L323.21 32.14H324.96L328.1 40.14H326.51ZM324.08 33.55L322.64 37.36H325.52L324.08 33.55Z" fill="white"/>
<path d="M331.371 40.14V36.82L328.261 32.14H329.871L332.081 35.57L334.261 32.14H335.871L332.781 36.82V40.14H331.381H331.371Z" fill="white"/>
<path d="M343.9 40.14V36.82L340.79 32.14H342.4L344.61 35.57L346.79 32.14H348.4L345.31 36.82V40.14H343.91H343.9Z" fill="white"/>
<path d="M349.33 36.14C349.33 33.75 351.02 32 353.42 32C355.82 32 357.51 33.75 357.51 36.14C357.51 38.53 355.82 40.28 353.42 40.28C351.02 40.28 349.33 38.53 349.33 36.14ZM356.07 36.14C356.07 34.48 355.03 33.25 353.42 33.25C351.81 33.25 350.77 34.49 350.77 36.14C350.77 37.79 351.8 39.03 353.42 39.03C355.04 39.03 356.07 37.78 356.07 36.14Z" fill="white"/>
<path d="M359.771 36.98V32.13H361.191V36.93C361.191 38.2 361.901 39.03 363.241 39.03C364.581 39.03 365.281 38.2 365.281 36.93V32.13H366.701V36.96C366.701 38.95 365.561 40.27 363.251 40.27C360.941 40.27 359.781 38.94 359.781 36.97L359.771 36.98Z" fill="white"/>
<path d="M373.871 40.14L372.091 37.15H370.701V40.14H369.301V32.14H372.811C374.391 32.14 375.421 33.17 375.421 34.65C375.421 36.13 374.491 36.84 373.531 37L375.491 40.14H373.871ZM373.991 34.64C373.991 33.87 373.411 33.37 372.621 33.37H370.701V35.91H372.621C373.411 35.91 373.991 35.41 373.991 34.64Z" fill="white"/>
<path d="M387.84 40.14L386.28 34.24L384.73 40.14H383.23L380.94 32.14H382.51L384.07 38.3L385.73 32.14H386.85L388.51 38.3L390.06 32.14H391.63L389.35 40.14H387.85H387.84Z" fill="white"/>
<path d="M398.52 40.14L397.93 38.6H394.26L393.67 40.14H392.08L395.22 32.14H396.97L400.11 40.14H398.52ZM396.1 33.55L394.66 37.36H397.54L396.1 33.55Z" fill="white"/>
<path d="M403.381 40.14V36.82L400.271 32.14H401.881L404.091 35.57L406.271 32.14H407.881L404.791 36.82V40.14H403.391H403.381Z" fill="white"/>
<path d="M346.07 209H394.07C401.8 209 408.07 215.27 408.07 223C408.07 230.73 401.8 237 394.07 237H346.07C338.34 237 332.07 230.73 332.07 223C332.07 215.27 338.34 209 346.07 209Z" fill="white"/>
<g clip-path="url(#clip1_0_100)">
<path d="M219.749 60.803C254.012 60.8249 271.143 60.8322 281.778 71.4172C292.413 82.0022 292.398 99.0294 292.368 133.08C292.338 167.131 292.323 184.155 281.67 194.729C271.016 205.303 253.881 205.292 219.623 205.274C185.36 205.252 168.229 205.241 157.594 194.659C146.959 184.074 146.974 167.047 147 132.996C147.034 98.9455 147.048 81.9182 157.702 71.3515C168.355 60.7738 185.49 60.7847 219.749 60.803Z" fill="#20242D"/>
<path d="M156.924 71.7238C147.03 82.2139 147.03 98.5331 147.03 131.175V134.825C147.03 167.467 147.03 183.786 156.924 194.276C157.587 194.977 158.276 195.656 158.995 196.302C169.701 206 186.355 206 219.668 206C252.977 206 269.635 206 280.341 196.302C281.056 195.652 281.745 194.977 282.408 194.276C285.954 190.517 288.23 186.005 289.69 180.26C286.207 180.45 282.024 180.45 276.943 180.45H214.814C200.421 180.45 193.224 180.45 188.75 176.158C184.28 171.865 184.28 164.952 184.28 151.137V131.785H292.305V131.175C292.305 123.401 292.305 116.557 292.171 110.49H184.325C184.485 101.836 185.245 96.8577 188.75 93.4924C193.22 89.2 200.421 89.2 214.814 89.2H276.947C282.419 89.2 286.856 89.2 290.491 89.4372C289.113 81.8817 286.684 76.2571 282.408 71.7238C281.746 71.0222 281.057 70.3465 280.341 69.6981C269.635 60 252.977 60 219.668 60C186.355 60 169.701 60 158.995 69.6981C158.278 70.3465 157.587 71.0222 156.924 71.7238Z" fill="#0038FF"/>
</g>
<g clip-path="url(#clip2_0_100)">
<path d="M27.6013 29H55.5851L48.6483 65.9131L25 62.507L27.6013 29Z" fill="#047CFC"/>
<path d="M33.4661 49.3369C34.6958 49.6855 36.0595 49.8597 37.5572 49.8597C38.2824 49.8597 38.8264 49.836 39.189 49.7885C39.5516 49.741 39.7959 49.6617 39.922 49.5508C40.0482 49.4399 40.1112 49.2894 40.1112 49.0993C40.1112 48.83 40.0088 48.6637 39.8038 48.6003C39.6147 48.5369 39.2283 48.4497 38.645 48.3388L36.7769 47.9824C35.5787 47.7448 34.7116 47.3724 34.1755 46.8655C33.6553 46.3427 33.3951 45.5664 33.3951 44.5366C33.3951 43.1425 33.805 42.1919 34.6249 41.685C35.4604 41.178 36.7847 40.9245 38.5977 40.9245C39.6855 40.9245 40.6394 40.9879 41.4592 41.1146C42.2948 41.2255 42.9885 41.3681 43.5403 41.5424L43.493 44.4179L43.422 44.4891C42.145 44.0772 40.7498 43.8712 39.2363 43.8712C38.4953 43.8712 37.975 43.9267 37.6755 44.0376C37.3917 44.1327 37.2498 44.3307 37.2498 44.6317C37.2498 44.7901 37.2892 44.9169 37.368 45.0119C37.4626 45.107 37.6676 45.202 37.9829 45.2971C38.2982 45.3763 38.7948 45.4793 39.4728 45.6061L41.199 45.9387C42.1607 46.1447 42.8702 46.4853 43.3274 46.9605C43.7846 47.4358 44.0132 48.1884 44.0132 49.2182C44.0132 50.1212 43.8476 50.842 43.5166 51.3806C43.1855 51.9034 42.6259 52.2758 41.8376 52.4976C41.0651 52.7194 39.993 52.8302 38.6214 52.8302C37.5809 52.8302 36.6192 52.7827 35.7363 52.6877C34.8692 52.5768 34.0888 52.45 33.3951 52.3074V49.3844L33.4661 49.3369Z" fill="white"/>
<path d="M56.1635 52.2361C55.722 52.3945 55.1072 52.5371 54.3189 52.6639C53.5464 52.7748 52.6241 52.8302 51.552 52.8302C50.1962 52.8302 49.0375 52.656 48.0758 52.3074C47.1298 51.9431 46.4125 51.3331 45.9237 50.4776C45.435 49.6062 45.1907 48.4022 45.1907 46.8655C45.1907 44.7743 45.6636 43.2614 46.6096 42.3266C47.5713 41.3919 49.0532 40.9245 51.0554 40.9245C52.4901 40.9245 53.6173 41.1305 54.4371 41.5424C55.2727 41.9543 55.8639 42.5405 56.2108 43.3009C56.5734 44.0455 56.7546 44.9327 56.7546 45.9625C56.7546 46.2635 56.7389 46.5883 56.7073 46.9368C56.6916 47.2854 56.6522 47.6259 56.5892 47.9586L56.4946 48.0537H48.7142C48.8246 48.7507 49.1478 49.2102 49.6838 49.432C50.2356 49.6538 51.1263 49.7647 52.3561 49.7647C53.1759 49.7647 53.8538 49.7488 54.3898 49.7171C54.9416 49.6696 55.5013 49.6062 56.0689 49.527L56.1635 49.5984V52.2361ZM53.4676 45.5585C53.4676 45.1783 53.4045 44.8535 53.2784 44.5842C53.168 44.299 52.9394 44.0852 52.5925 43.9426C52.2457 43.7842 51.7334 43.7049 51.0554 43.7049C50.0622 43.7049 49.4079 43.8792 49.0926 44.2278C48.793 44.5604 48.6433 45.004 48.6433 45.5585H53.4676Z" fill="white"/>
<path d="M62.55 52.6163H58.7662V36.6233H62.55V52.6163Z" fill="white"/>
<path d="M75.5393 52.2361C75.0979 52.3945 74.483 52.5371 73.6948 52.6639C72.9223 52.7748 72 52.8302 70.928 52.8302C69.5721 52.8302 68.4133 52.656 67.4516 52.3074C66.5057 51.9431 65.7884 51.3331 65.2997 50.4776C64.8109 49.6062 64.5665 48.4022 64.5665 46.8655C64.5665 44.7743 65.0395 43.2614 65.9854 42.3266C66.9471 41.3919 68.4291 40.9245 70.4313 40.9245C71.866 40.9245 72.9933 41.1305 73.8131 41.5424C74.6486 41.9543 75.2398 42.5405 75.5866 43.3009C75.9492 44.0455 76.1306 44.9327 76.1306 45.9625C76.1306 46.2635 76.1148 46.5883 76.0833 46.9368C76.0675 47.2854 76.0281 47.6259 75.965 47.9586L75.8704 48.0537H68.0902C68.2005 48.7507 68.5237 49.2102 69.0597 49.432C69.6115 49.6538 70.5023 49.7647 71.732 49.7647C72.5518 49.7647 73.2297 49.7488 73.7658 49.7171C74.3176 49.6696 74.8772 49.6062 75.4447 49.527L75.5393 49.5984V52.2361ZM72.8434 45.5585C72.8434 45.1783 72.7804 44.8535 72.6542 44.5842C72.5439 44.299 72.3153 44.0852 71.9685 43.9426C71.6216 43.7842 71.1092 43.7049 70.4313 43.7049C69.4381 43.7049 68.7839 43.8792 68.4685 44.2278C68.169 44.5604 68.0192 45.004 68.0192 45.5585H72.8434Z" fill="white"/>
<path d="M87.1047 49.2657V52.355C86.7106 52.5134 86.1273 52.6322 85.3547 52.7114C84.5822 52.7906 83.7624 52.8302 82.8953 52.8302C81.6499 52.8302 80.6093 52.656 79.7738 52.3074C78.9539 51.9589 78.3391 51.3569 77.9292 50.5014C77.535 49.6459 77.3301 48.4577 77.3143 46.9368C77.3143 45.3684 77.5272 44.1485 77.9529 43.2772C78.3943 42.4059 79.0328 41.7959 79.8683 41.4473C80.7039 41.0988 81.7051 40.9245 82.8717 40.9245C83.5654 40.9245 84.2985 40.9721 85.071 41.0671C85.8435 41.1622 86.4741 41.2889 86.9628 41.4473L86.9865 44.6317L86.9155 44.6792C86.4426 44.5842 85.9381 44.5129 85.402 44.4654C84.866 44.4179 84.3379 44.394 83.8177 44.394C82.7614 44.394 82.0282 44.5921 81.6183 44.9882C81.2084 45.3843 81.0035 46.0496 81.0035 46.9844C81.0035 47.6973 81.0902 48.2279 81.2636 48.5765C81.4371 48.925 81.7287 49.1548 82.1386 49.2657C82.5485 49.3766 83.1082 49.432 83.8177 49.432C84.3695 49.432 84.8976 49.4083 85.402 49.3607C85.9065 49.3132 86.4426 49.2577 87.0101 49.1943L87.1047 49.2657Z" fill="white"/>
<path d="M89.4637 49.1468V44.1564H88.0448V41.0671H89.8185L90.5279 38.2393H93.2474V41.0671H95.8251V44.1564H93.2474V48.3151C93.2474 48.7587 93.3026 49.0676 93.413 49.2419C93.5234 49.4003 93.7756 49.4795 94.1698 49.4795C94.422 49.4795 94.69 49.4716 94.9738 49.4558C95.2576 49.4241 95.5414 49.3924 95.8251 49.3607L95.896 49.4083V52.4976C95.1393 52.7194 94.1382 52.8303 92.8927 52.8303C91.6473 52.8303 90.7644 52.5451 90.2441 51.9748C89.7239 51.4044 89.4637 50.4617 89.4637 49.1468Z" fill="white"/>
<path d="M97.1984 46.913C97.1984 44.7901 97.6477 43.2614 98.5464 42.3266C99.445 41.3919 100.966 40.9245 103.11 40.9245C104.545 40.9245 105.696 41.1305 106.563 41.5424C107.43 41.9543 108.053 42.6038 108.431 43.491C108.825 44.3624 109.023 45.503 109.023 46.913C109.023 48.3072 108.825 49.4399 108.431 50.3113C108.053 51.1826 107.43 51.8242 106.563 52.2361C105.696 52.6322 104.545 52.8302 103.11 52.8302C100.966 52.8302 99.445 52.3708 98.5464 51.4519C97.6477 50.5172 97.1984 49.0042 97.1984 46.913ZM103.11 49.5746C104.025 49.5746 104.64 49.3766 104.955 48.9805C105.286 48.5686 105.452 47.8557 105.452 46.8418C105.452 45.8754 105.286 45.1862 104.955 44.7743C104.64 44.3465 104.025 44.1327 103.11 44.1327C102.228 44.1327 101.613 44.3465 101.266 44.7743C100.935 45.1862 100.769 45.8754 100.769 46.8418C100.769 47.8557 100.935 48.5686 101.266 48.9805C101.613 49.3766 102.228 49.5746 103.11 49.5746Z" fill="white"/>
<path d="M114.812 52.6163H111.028V41.0434H114.102L114.41 43.4198H114.481C114.622 42.5326 114.962 41.8989 115.498 41.5187C116.034 41.1226 116.83 40.9245 117.886 40.9245C118.312 40.9245 118.698 40.9483 119.045 40.9959C119.392 41.0276 119.683 41.0592 119.92 41.0909V44.7981L119.872 44.8456C119.62 44.7822 119.329 44.7267 118.997 44.6792C118.682 44.6317 118.32 44.608 117.91 44.608C117.326 44.608 116.798 44.703 116.325 44.8931C115.868 45.0832 115.505 45.4555 115.237 46.01C114.985 46.5486 114.859 47.3566 114.859 48.4339L114.812 52.6163Z" fill="white"/>
</g>
</g>
<path d="M28.7891 235V227H33.9922V228.215H30.2383V230.387H33.7227V231.602H30.2383V233.785H34.0234V235H28.7891ZM42.3184 229.699H40.8574C40.8158 229.46 40.7389 229.247 40.627 229.062C40.515 228.875 40.3757 228.716 40.209 228.586C40.0423 228.456 39.8522 228.358 39.6387 228.293C39.4277 228.225 39.1999 228.191 38.9551 228.191C38.5202 228.191 38.1348 228.301 37.7988 228.52C37.4629 228.736 37.1999 229.053 37.0098 229.473C36.8197 229.889 36.7246 230.398 36.7246 231C36.7246 231.612 36.8197 232.128 37.0098 232.547C37.2025 232.964 37.4655 233.279 37.7988 233.492C38.1348 233.703 38.5189 233.809 38.9512 233.809C39.1908 233.809 39.4147 233.777 39.623 233.715C39.834 233.65 40.0228 233.555 40.1895 233.43C40.3587 233.305 40.5007 233.151 40.6152 232.969C40.7324 232.786 40.8132 232.578 40.8574 232.344L42.3184 232.352C42.2637 232.732 42.1452 233.089 41.9629 233.422C41.7832 233.755 41.5475 234.049 41.2559 234.305C40.9642 234.557 40.623 234.755 40.2324 234.898C39.8418 235.039 39.4082 235.109 38.9316 235.109C38.2285 235.109 37.6009 234.947 37.0488 234.621C36.4967 234.296 36.0618 233.826 35.7441 233.211C35.4264 232.596 35.2676 231.859 35.2676 231C35.2676 230.138 35.4277 229.401 35.748 228.789C36.0684 228.174 36.5046 227.704 37.0566 227.379C37.6087 227.053 38.2337 226.891 38.9316 226.891C39.377 226.891 39.791 226.953 40.1738 227.078C40.5566 227.203 40.8978 227.387 41.1973 227.629C41.4967 227.868 41.7428 228.163 41.9355 228.512C42.1309 228.858 42.2585 229.254 42.3184 229.699ZM50.7939 231C50.7939 231.862 50.6325 232.6 50.3096 233.215C49.9893 233.827 49.5518 234.296 48.9971 234.621C48.445 234.947 47.8187 235.109 47.1182 235.109C46.4176 235.109 45.79 234.947 45.2354 234.621C44.6833 234.293 44.2458 233.823 43.9229 233.211C43.6025 232.596 43.4424 231.859 43.4424 231C43.4424 230.138 43.6025 229.401 43.9229 228.789C44.2458 228.174 44.6833 227.704 45.2354 227.379C45.79 227.053 46.4176 226.891 47.1182 226.891C47.8187 226.891 48.445 227.053 48.9971 227.379C49.5518 227.704 49.9893 228.174 50.3096 228.789C50.6325 229.401 50.7939 230.138 50.7939 231ZM49.3369 231C49.3369 230.393 49.2419 229.882 49.0518 229.465C48.8643 229.046 48.6038 228.729 48.2705 228.516C47.9372 228.299 47.5531 228.191 47.1182 228.191C46.6833 228.191 46.2992 228.299 45.9658 228.516C45.6325 228.729 45.3708 229.046 45.1807 229.465C44.9932 229.882 44.8994 230.393 44.8994 231C44.8994 231.607 44.9932 232.12 45.1807 232.539C45.3708 232.956 45.6325 233.272 45.9658 233.488C46.2992 233.702 46.6833 233.809 47.1182 233.809C47.5531 233.809 47.9372 233.702 48.2705 233.488C48.6038 233.272 48.8643 232.956 49.0518 232.539C49.2419 232.12 49.3369 231.607 49.3369 231ZM52.1641 235V227H55.1641C55.7786 227 56.2943 227.107 56.7109 227.32C57.1302 227.534 57.4466 227.833 57.6602 228.219C57.8763 228.602 57.9844 229.048 57.9844 229.559C57.9844 230.072 57.875 230.517 57.6563 230.895C57.4401 231.27 57.1211 231.56 56.6992 231.766C56.2773 231.969 55.7591 232.07 55.1445 232.07H53.0078V230.867H54.9492C55.3086 230.867 55.6029 230.818 55.832 230.719C56.0612 230.617 56.2305 230.47 56.3398 230.277C56.4518 230.082 56.5078 229.842 56.5078 229.559C56.5078 229.275 56.4518 229.033 56.3398 228.832C56.2279 228.629 56.0573 228.475 55.8281 228.371C55.599 228.264 55.3034 228.211 54.9414 228.211H53.6133V235H52.1641ZM56.2969 231.375L58.2773 235H56.6602L54.7148 231.375H56.2969ZM59.3184 235V227H62.3184C62.9329 227 63.4486 227.115 63.8652 227.344C64.2845 227.573 64.6009 227.888 64.8145 228.289C65.0306 228.687 65.1387 229.141 65.1387 229.648C65.1387 230.161 65.0306 230.617 64.8145 231.016C64.5983 231.414 64.2793 231.728 63.8574 231.957C63.4355 232.184 62.916 232.297 62.2988 232.297H60.3105V231.105H62.1035C62.4629 231.105 62.7572 231.043 62.9863 230.918C63.2155 230.793 63.3848 230.621 63.4941 230.402C63.6061 230.184 63.6621 229.932 63.6621 229.648C63.6621 229.365 63.6061 229.115 63.4941 228.898C63.3848 228.682 63.2142 228.514 62.9824 228.395C62.7533 228.272 62.4577 228.211 62.0957 228.211H60.7676V235H59.3184ZM66.5332 235H64.9863L67.8027 227H69.5918L72.4121 235H70.8652L68.7285 228.641H68.666L66.5332 235ZM66.584 231.863H70.8027V233.027H66.584V231.863ZM72.1025 227H73.7393L75.6963 230.539H75.7744L77.7314 227H79.3682L76.458 232.016V235H75.0127V232.016L72.1025 227Z" fill="white"/>
<path d="M356.789 227V219H361.914V220.215H358.238V222.387H361.562V223.602H358.238V227H356.789ZM366.114 219V227H364.664V219H366.114ZM370.14 227H368.593L371.41 219H373.199L376.019 227H374.472L372.336 220.641H372.273L370.14 227ZM370.191 223.863H374.41V225.027H370.191V223.863ZM377.185 220.215V219H383.567V220.215H381.095V227H379.657V220.215H377.185Z" fill="black"/>
</g>
<defs>
<clipPath id="clip0_0_100">
<rect width="440" height="269" fill="white"/>
</clipPath>
<clipPath id="clip1_0_100">
<rect width="149" height="146" fill="white" transform="translate(147 60)"/>
</clipPath>
<clipPath id="clip2_0_100">
<rect width="95" height="37" fill="white" transform="translate(25 29)"/>
</clipPath>
</defs>
</svg>
