<svg xmlns="http://www.w3.org/2000/svg" viewBox="0 0 24 24" width="24" height="24" fill="none">
  <path
    fill="#fff"
    d="M12 2C6.48 2 2 6.06 2 11.07c0 2.86 1.45 5.4 3.71 7.07L5 22l3.92-2.16c.98.27 2.02.42 3.08.42 5.52 0 10-4.06 10-9.07S17.52 2 12 2Zm0 16.14c-.95 0-1.86-.14-2.71-.4l-.4-.12-2.34 1.29.43-2.43-.27-.27c-1.83-1.27-3.21-3.16-3.21-5.14C3.5 7.14 7.31 4 12 4s8.5 3.14 8.5 7.07-3.81 7.07-8.5 7.07Z"
  />
  <circle cx="8" cy="11" r="1.2" fill="#fff" />
  <circle cx="12" cy="11" r="1.2" fill="#fff" />
  <circle cx="16" cy="11" r="1.2" fill="#fff" />
</svg>